<?xml version="1.0" standalone="no"?>
<!DOCTYPE svg PUBLIC "-//W3C//DTD SVG 20010904//EN"
 "http://www.w3.org/TR/2001/REC-SVG-20010904/DTD/svg10.dtd">
<svg version="1.0" xmlns="http://www.w3.org/2000/svg"
 width="592.000000pt" height="406.000000pt" viewBox="0 0 592.000000 406.000000"
 preserveAspectRatio="xMidYMid meet">

<g transform="translate(0.000000,406.000000) scale(0.100000,-0.100000)"
fill="#000000" stroke="none">
<path d="M2580 3879 c-193 -33 -411 -131 -545 -244 -169 -143 -274 -284 -351
-472 -23 -58 -49 -110 -56 -114 -7 -5 -62 -9 -123 -9 -167 -1 -324 -41 -440
-112 -150 -93 -186 -124 -292 -253 -79 -96 -145 -243 -173 -383 -14 -70 -9
-251 10 -342 39 -182 228 -428 394 -512 165 -83 205 -88 749 -88 310 0 457 3
457 10 0 6 -18 34 -39 63 -22 29 -55 81 -73 117 l-34 65 -384 6 c-422 6 -431
7 -553 72 -161 85 -288 312 -274 488 7 84 41 198 81 269 47 85 174 211 254
253 127 67 214 91 332 91 71 0 126 -6 170 -18 36 -10 74 -20 86 -23 18 -4 25
9 64 129 23 73 58 162 75 198 59 117 158 251 233 313 26 22 52 47 59 57 15 22
209 122 290 149 166 57 339 67 496 27 115 -29 162 -49 273 -117 83 -49 224
-179 224 -205 0 -16 -23 -24 -69 -24 -60 0 -179 -46 -239 -92 -124 -96 -192
-276 -163 -433 23 -128 141 -296 264 -379 192 -127 326 -309 365 -494 15 -72
15 -85 0 -159 -35 -180 -160 -335 -316 -393 -148 -56 -243 -60 -379 -19 -153
47 -323 172 -391 286 -87 148 -103 265 -45 345 52 73 155 84 295 34 82 -30
100 -39 165 -88 41 -30 54 -46 59 -74 8 -43 -12 -142 -33 -166 -19 -21 -44
-114 -50 -185 -4 -45 -2 -52 16 -58 41 -13 205 136 252 226 23 47 43 195 33
254 -20 122 -65 192 -169 264 -105 73 -166 93 -300 99 -130 5 -206 -7 -291
-47 -164 -77 -244 -228 -244 -461 0 -182 62 -321 212 -471 235 -235 567 -307
875 -189 171 66 360 217 441 353 110 184 142 341 108 534 -23 128 -34 158 -88
250 -55 94 -137 182 -291 313 -129 109 -181 174 -207 257 -24 78 -25 113 -5
179 25 80 65 117 154 139 53 14 71 15 114 4 129 -30 218 -102 319 -256 56 -84
64 -93 75 -77 17 23 17 180 -1 259 -23 106 -120 287 -224 418 -154 193 -343
323 -587 404 l-110 37 -200 2 c-110 2 -225 -2 -255 -7z"/>
<path d="M3920 3315 c0 -9 15 -42 33 -73 17 -31 54 -101 81 -154 44 -85 53
-97 80 -102 83 -16 224 -108 286 -186 39 -50 77 -120 100 -185 16 -46 20 -50
46 -48 150 12 189 8 248 -21 116 -57 188 -149 227 -291 68 -248 -38 -476 -274
-589 -97 -47 -164 -56 -424 -56 l-223 0 -21 -42 c-12 -24 -41 -73 -64 -109
-24 -36 -46 -76 -50 -88 l-7 -22 364 4 c344 3 367 5 438 26 154 47 279 135
388 275 60 76 79 112 123 231 31 86 33 96 33 240 1 131 -2 158 -22 216 -44
127 -118 244 -209 331 -94 89 -250 168 -335 168 -31 0 -63 28 -103 91 -63 99
-271 259 -413 319 -68 29 -200 68 -254 75 -41 6 -48 5 -48 -10z"/>
<path d="M3421 2974 c-26 -22 -31 -33 -31 -70 0 -84 55 -144 132 -144 53 0 85
18 104 58 30 63 1 142 -61 168 -55 22 -109 18 -144 -12z"/>
<path d="M2091 719 c-50 -11 -83 -39 -114 -100 -26 -49 -28 -62 -25 -134 7
-138 64 -206 172 -207 122 -1 196 84 196 227 0 151 -98 243 -229 214z m111
-78 c63 -50 64 -213 2 -275 -36 -36 -110 -37 -142 -3 -59 62 -56 229 5 277 34
26 101 27 135 1z"/>
<path d="M2408 723 c-16 -4 -18 -23 -18 -224 0 -179 2 -219 14 -219 7 0 19 6
25 14 10 11 18 11 49 0 64 -22 139 4 172 59 27 43 27 131 0 174 -32 54 -95 76
-167 59 l-33 -8 0 76 c0 78 -1 80 -42 69z m162 -193 c30 -16 44 -77 31 -128
-13 -48 -34 -62 -88 -62 -55 0 -63 13 -63 100 0 46 5 81 12 88 15 15 82 16
108 2z"/>
<path d="M4208 723 c-16 -4 -18 -22 -18 -206 0 -111 4 -207 8 -213 11 -17 35
-22 59 -13 21 8 21 10 8 36 -12 22 -15 71 -15 216 0 195 1 191 -42 180z"/>
<path d="M4368 723 c-16 -4 -18 -23 -18 -224 l0 -219 35 0 35 0 0 54 c0 38 6
61 19 77 11 13 21 22 24 19 2 -3 25 -38 51 -77 43 -68 48 -73 81 -73 19 0 35
2 35 6 0 3 -17 31 -38 62 -21 31 -49 74 -61 95 l-23 37 52 60 52 60 -39 0
c-34 0 -43 -6 -87 -60 -28 -33 -53 -60 -58 -60 -4 0 -8 56 -8 125 0 134 1 132
-52 118z"/>
<path d="M4716 715 c-9 -9 -16 -23 -16 -30 0 -7 7 -21 16 -30 14 -14 19 -14
38 -2 11 8 21 22 21 32 0 10 -10 24 -21 32 -19 12 -24 12 -38 -2z"/>
<path d="M976 703 c-2 -10 -21 -101 -41 -203 -20 -102 -39 -193 -41 -202 -4
-15 1 -18 28 -18 l34 0 23 120 c13 66 27 118 31 115 5 -3 25 -54 44 -113 41
-122 52 -143 64 -125 4 7 26 65 48 128 21 63 42 115 45 115 3 0 13 -44 23 -97
28 -152 24 -143 61 -143 l33 0 -45 218 c-25 119 -46 219 -48 221 -16 16 -37
-27 -75 -153 -25 -80 -47 -146 -50 -146 -3 0 -27 68 -53 150 -32 100 -52 150
-62 150 -7 0 -16 -8 -19 -17z"/>
<path d="M3140 685 l0 -35 70 0 70 0 0 -185 0 -185 35 0 35 0 0 185 0 185 70
0 70 0 0 35 0 35 -175 0 -175 0 0 -35z"/>
<path d="M1763 670 c-17 -7 -23 -18 -23 -40 0 -23 -4 -30 -20 -30 -16 0 -20
-7 -20 -30 0 -23 4 -30 20 -30 19 0 20 -7 20 -103 0 -95 2 -105 23 -125 22
-21 53 -28 110 -24 22 2 27 7 27 27 0 22 -4 25 -40 25 -51 0 -60 17 -60 119
l0 81 45 0 c43 0 45 1 45 30 0 29 -2 30 -45 30 l-45 0 0 40 c0 42 -2 44 -37
30z"/>
<path d="M4903 670 c-17 -7 -23 -18 -23 -40 0 -23 -4 -30 -20 -30 -16 0 -20
-7 -20 -30 0 -23 4 -30 20 -30 19 0 20 -7 20 -103 0 -95 2 -105 23 -125 22
-21 53 -28 110 -24 22 2 27 7 27 27 0 22 -4 25 -40 25 -51 0 -60 17 -60 119
l0 81 45 0 c43 0 45 1 45 30 0 29 -2 30 -45 30 l-45 0 0 40 c0 42 -2 44 -37
30z"/>
<path d="M1475 590 c-75 -16 -120 -75 -119 -158 1 -57 18 -89 66 -125 29 -22
124 -26 170 -8 25 9 27 13 16 35 -9 20 -14 23 -29 16 -20 -11 -89 -13 -114 -4
-14 6 -45 53 -45 69 0 3 51 5 114 5 106 0 115 2 121 20 12 37 -15 101 -54 127
-32 21 -87 31 -126 23z m99 -72 c9 -12 16 -26 16 -30 0 -5 -36 -8 -80 -8 -54
0 -80 4 -80 12 0 49 114 69 144 26z"/>
<path d="M2787 585 c-44 -15 -40 -12 -56 -43 -21 -40 1 -74 72 -113 50 -28 62
-39 62 -59 0 -22 -5 -25 -37 -28 -20 -2 -46 2 -57 8 -17 8 -22 6 -32 -11 -14
-26 -3 -38 45 -49 103 -23 194 61 138 130 -10 12 -42 34 -72 48 -39 19 -55 33
-55 47 0 17 7 20 53 21 35 1 57 6 63 15 14 22 11 27 -23 34 -18 4 -40 8 -48
10 -8 2 -32 -2 -53 -10z"/>
<path d="M3562 590 c-74 -17 -119 -100 -102 -189 19 -104 141 -148 236 -86 79
51 68 222 -17 261 -36 17 -80 22 -117 14z m98 -70 c15 -15 20 -33 20 -74 0
-71 -26 -106 -79 -106 -53 0 -75 27 -75 93 -1 74 22 107 74 107 27 0 47 -7 60
-20z"/>
<path d="M3912 590 c-74 -17 -119 -100 -102 -189 19 -104 141 -148 236 -86 79
51 68 222 -17 261 -36 17 -80 22 -117 14z m98 -70 c15 -15 20 -33 20 -74 0
-71 -26 -106 -79 -106 -53 0 -75 27 -75 93 -1 74 22 107 74 107 27 0 47 -7 60
-20z"/>
<path d="M4660 570 c0 -23 4 -30 20 -30 19 0 20 -7 20 -130 l0 -130 35 0 35 0
0 160 0 160 -55 0 c-54 0 -55 0 -55 -30z"/>
</g>
</svg>
